<svg width="230" height="33" viewBox="0 0 230 33" fill="none" xmlns="http://www.w3.org/2000/svg">
<path d="M10.576 3.628C9.664 3.628 8.992 3.712 8.56 3.88C8.128 4.024 7.84 4.324 7.696 4.78C7.552 5.212 7.48 5.896 7.48 6.832V12.088C7.48 13.312 7.312 14.248 6.976 14.896C6.664 15.52 6.136 15.964 5.392 16.228C6.112 16.468 6.64 16.912 6.976 17.56C7.312 18.208 7.48 19.144 7.48 20.368V25.588C7.48 26.548 7.564 27.256 7.732 27.712C7.9 28.144 8.188 28.432 8.596 28.576C9.028 28.72 9.688 28.792 10.576 28.792V31.312C8.848 31.312 7.552 31.144 6.688 30.808C5.848 30.496 5.26 29.884 4.924 28.972C4.588 28.084 4.42 26.704 4.42 24.832V20.368C4.42 19.264 4.24 18.508 3.88 18.1C3.544 17.692 2.944 17.488 2.08 17.488H1.18V14.968H2.08C2.944 14.968 3.544 14.764 3.88 14.356C4.24 13.924 4.42 13.168 4.42 12.088V7.588C4.42 5.716 4.6 4.324 4.96 3.412C5.32 2.5 5.92 1.888 6.76 1.576C7.6 1.264 8.872 1.108 10.576 1.108V3.628ZM25.3309 4.42V7.192H15.9709V14.644H24.6109V17.38H15.9709V25.228H25.3309V28H12.9109V4.42H25.3309ZM33.2636 3.412V28H30.2036V3.412H33.2636ZM44.2655 10C46.4015 10 47.9855 10.576 49.0175 11.728C50.0735 12.856 50.6015 14.464 50.6015 16.552V21.88C50.6015 23.968 50.0735 25.588 49.0175 26.74C47.9855 27.868 46.4015 28.432 44.2655 28.432C42.1295 28.432 40.5335 27.868 39.4775 26.74C38.4455 25.588 37.9295 23.968 37.9295 21.88V16.552C37.9295 14.464 38.4455 12.856 39.4775 11.728C40.5335 10.576 42.1295 10 44.2655 10ZM44.2655 12.556C43.2335 12.556 42.4295 12.88 41.8535 13.528C41.2775 14.176 40.9895 15.1 40.9895 16.3V22.132C40.9895 23.332 41.2775 24.256 41.8535 24.904C42.4295 25.552 43.2335 25.876 44.2655 25.876C45.2975 25.876 46.1015 25.552 46.6775 24.904C47.2535 24.256 47.5415 23.332 47.5415 22.132V16.264C47.5415 15.064 47.2535 14.152 46.6775 13.528C46.1015 12.88 45.2975 12.556 44.2655 12.556ZM65.746 10.432V12.7L57.61 25.372H65.746V28H54.01V25.732L62.182 13.06H54.19V10.432H65.746ZM72.7792 10.432V28H69.7192V10.432H72.7792ZM71.2312 3.34C71.8792 3.34 72.3712 3.484 72.7072 3.772C73.0672 4.06 73.2472 4.468 73.2472 4.996V6.04C73.2472 6.568 73.0672 6.976 72.7072 7.264C72.3712 7.528 71.8792 7.66 71.2312 7.66C70.6072 7.66 70.1152 7.528 69.7552 7.264C69.4192 6.976 69.2512 6.568 69.2512 6.04V4.996C69.2512 4.468 69.4192 4.06 69.7552 3.772C70.1152 3.484 70.6072 3.34 71.2312 3.34ZM85.4732 10C87.0092 10 88.1852 10.528 89.0012 11.584C89.8412 12.616 90.2612 14.092 90.2612 16.012V28H87.2012V16.444C87.2012 14.044 86.4212 12.844 84.8612 12.844C84.1652 12.844 83.4572 13.108 82.7372 13.636C82.0172 14.164 81.3932 14.884 80.8652 15.796V28H77.8052V10.432H80.6852V13.06C81.3332 12.076 82.0532 11.32 82.8452 10.792C83.6612 10.264 84.5372 10 85.4732 10ZM101.289 10C103.425 10 105.009 10.576 106.041 11.728C107.097 12.856 107.625 14.464 107.625 16.552V21.88C107.625 23.968 107.097 25.588 106.041 26.74C105.009 27.868 103.425 28.432 101.289 28.432C99.153 28.432 97.557 27.868 96.501 26.74C95.469 25.588 94.953 23.968 94.953 21.88V16.552C94.953 14.464 95.469 12.856 96.501 11.728C97.557 10.576 99.153 10 101.289 10ZM101.289 12.556C100.257 12.556 99.453 12.88 98.877 13.528C98.301 14.176 98.013 15.1 98.013 16.3V22.132C98.013 23.332 98.301 24.256 98.877 24.904C99.453 25.552 100.257 25.876 101.289 25.876C102.321 25.876 103.125 25.552 103.701 24.904C104.277 24.256 104.565 23.332 104.565 22.132V16.264C104.565 15.064 104.277 14.152 103.701 13.528C103.125 12.88 102.321 12.556 101.289 12.556ZM126.61 3.988C129.298 3.988 131.278 4.66 132.55 6.004C133.822 7.348 134.458 9.256 134.458 11.728V20.692C134.458 23.164 133.822 25.072 132.55 26.416C131.278 27.76 129.298 28.432 126.61 28.432C123.922 28.432 121.942 27.76 120.67 26.416C119.398 25.072 118.762 23.164 118.762 20.692V11.728C118.762 9.256 119.398 7.348 120.67 6.004C121.942 4.66 123.922 3.988 126.61 3.988ZM126.61 6.688C125.026 6.688 123.826 7.084 123.01 7.876C122.218 8.668 121.822 9.832 121.822 11.368V21.016C121.822 22.552 122.218 23.728 123.01 24.544C123.826 25.336 125.026 25.732 126.61 25.732C128.194 25.732 129.382 25.336 130.174 24.544C130.99 23.728 131.398 22.552 131.398 21.016V11.404C131.398 9.868 130.99 8.704 130.174 7.912C129.382 7.096 128.194 6.688 126.61 6.688ZM152.176 10.432L146.74 28H142.744L137.344 10.432H140.584L144.76 25.768L148.936 10.432H152.176ZM160.698 10C162.714 10 164.25 10.552 165.306 11.656C166.362 12.76 166.89 14.356 166.89 16.444V20.152H157.638V22.276C157.638 23.5 157.926 24.388 158.502 24.94C159.102 25.468 160.038 25.732 161.31 25.732C162.558 25.732 164.118 25.54 165.99 25.156L166.062 27.82C163.83 28.228 162.234 28.432 161.274 28.432C158.898 28.432 157.182 27.916 156.126 26.884C155.094 25.852 154.578 24.256 154.578 22.096V16.444C154.578 14.356 155.082 12.76 156.09 11.656C157.122 10.552 158.658 10 160.698 10ZM160.698 12.556C159.762 12.556 159.018 12.856 158.466 13.456C157.914 14.032 157.638 14.872 157.638 15.976V17.704H163.83V16.084C163.83 14.932 163.542 14.056 162.966 13.456C162.414 12.856 161.658 12.556 160.698 12.556ZM183.136 28H180.22V25.156C178.78 27.34 177.136 28.432 175.288 28.432C173.8 28.432 172.66 27.928 171.868 26.92C171.076 25.888 170.68 24.388 170.68 22.42V16.012C170.68 14.116 171.112 12.64 171.976 11.584C172.864 10.528 174.124 10 175.756 10C176.452 10 177.184 10.18 177.952 10.54C178.72 10.876 179.428 11.296 180.076 11.8V3.412H183.136V28ZM176.44 12.736C175.576 12.736 174.904 13.048 174.424 13.672C173.968 14.272 173.74 15.196 173.74 16.444V22.024C173.74 24.472 174.496 25.696 176.008 25.696C176.728 25.696 177.436 25.42 178.132 24.868C178.852 24.292 179.5 23.488 180.076 22.456V14.536C179.572 14.008 178.972 13.576 178.276 13.24C177.604 12.904 176.992 12.736 176.44 12.736ZM191.221 12.772C192.541 10.924 194.077 10 195.829 10C197.365 10 198.541 10.528 199.357 11.584C200.197 12.616 200.617 14.092 200.617 16.012V28H197.557V16.444C197.557 14.044 196.777 12.844 195.217 12.844C194.521 12.844 193.813 13.108 193.093 13.636C192.373 14.164 191.749 14.884 191.221 15.796V28H188.161V3.412H191.221V12.772ZM211.253 10C213.269 10 214.805 10.552 215.861 11.656C216.917 12.76 217.445 14.356 217.445 16.444V20.152H208.193V22.276C208.193 23.5 208.481 24.388 209.057 24.94C209.657 25.468 210.593 25.732 211.865 25.732C213.113 25.732 214.673 25.54 216.545 25.156L216.617 27.82C214.385 28.228 212.789 28.432 211.829 28.432C209.453 28.432 207.737 27.916 206.681 26.884C205.649 25.852 205.133 24.256 205.133 22.096V16.444C205.133 14.356 205.637 12.76 206.645 11.656C207.677 10.552 209.213 10 211.253 10ZM211.253 12.556C210.317 12.556 209.573 12.856 209.021 13.456C208.469 14.032 208.193 14.872 208.193 15.976V17.704H214.385V16.084C214.385 14.932 214.097 14.056 213.521 13.456C212.969 12.856 212.213 12.556 211.253 12.556ZM218.75 1.108C220.454 1.108 221.726 1.264 222.566 1.576C223.406 1.888 224.006 2.5 224.366 3.412C224.726 4.324 224.906 5.716 224.906 7.588V12.088C224.906 13.168 225.074 13.924 225.41 14.356C225.77 14.764 226.382 14.968 227.246 14.968H228.146V17.488H227.246C226.382 17.488 225.77 17.692 225.41 18.1C225.074 18.508 224.906 19.264 224.906 20.368V24.832C224.906 26.704 224.738 28.084 224.402 28.972C224.066 29.884 223.466 30.496 222.602 30.808C221.762 31.144 220.478 31.312 218.75 31.312V28.792C219.638 28.792 220.286 28.72 220.694 28.576C221.126 28.432 221.426 28.144 221.594 27.712C221.762 27.256 221.846 26.548 221.846 25.588V20.368C221.846 19.144 222.014 18.208 222.35 17.56C222.686 16.912 223.214 16.468 223.934 16.228C223.19 15.964 222.65 15.52 222.314 14.896C222.002 14.248 221.846 13.312 221.846 12.088V6.832C221.846 5.896 221.774 5.212 221.63 4.78C221.486 4.324 221.198 4.024 220.766 3.88C220.334 3.712 219.662 3.628 218.75 3.628V1.108Z" fill="#D6FCFF"/>
<path d="M10.576 3.628V4.628H11.576V3.628H10.576ZM8.56 3.88L8.87623 4.82868L8.89954 4.82091L8.92245 4.812L8.56 3.88ZM7.696 4.78L8.64468 5.09623L8.64719 5.0887L8.64958 5.08113L7.696 4.78ZM6.976 14.896L6.08825 14.4357L6.08486 14.4422L6.08157 14.4488L6.976 14.896ZM5.392 16.228L5.05759 15.2856L2.31838 16.2575L5.07577 17.1767L5.392 16.228ZM6.976 17.56L7.86375 17.0997L7.86375 17.0997L6.976 17.56ZM7.732 27.712L6.79366 28.0577L6.79675 28.0661L6.8 28.0744L7.732 27.712ZM8.596 28.576L8.26318 29.519L8.27145 29.5219L8.27977 29.5247L8.596 28.576ZM10.576 28.792H11.576V27.792H10.576V28.792ZM10.576 31.312V32.312H11.576V31.312H10.576ZM6.688 30.808L7.05045 29.876L7.04334 29.8732L7.03619 29.8706L6.688 30.808ZM4.924 28.972L5.86238 28.6263L5.85929 28.6181L4.924 28.972ZM3.88 18.1L3.10807 18.7357L3.1189 18.7489L3.13016 18.7616L3.88 18.1ZM1.18 17.488H0.18V18.488H1.18V17.488ZM1.18 14.968V13.968H0.18V14.968H1.18ZM3.88 14.356L3.11177 13.7158L3.10807 13.7203L3.88 14.356ZM4.96 3.412L5.89016 3.77917L5.89016 3.77917L4.96 3.412ZM6.76 1.576L7.10819 2.51342L7.10819 2.51342L6.76 1.576ZM10.576 1.108H11.576V0.107999H10.576V1.108ZM10.576 2.628C9.63633 2.628 8.80973 2.70993 8.19755 2.948L8.92245 4.812C9.17427 4.71407 9.69167 4.628 10.576 4.628V2.628ZM8.24377 2.93132C7.49038 3.18245 6.9772 3.7354 6.74242 4.47887L8.64958 5.08113C8.7028 4.91259 8.76562 4.86555 8.87623 4.82868L8.24377 2.93132ZM6.74732 4.46377C6.54955 5.05708 6.48 5.87717 6.48 6.832H8.48C8.48 5.91483 8.55445 5.36692 8.64468 5.09623L6.74732 4.46377ZM6.48 6.832V12.088H8.48V6.832H6.48ZM6.48 12.088C6.48 13.2469 6.31653 13.9954 6.08825 14.4357L7.86375 15.3563C8.30747 14.5006 8.48 13.3771 8.48 12.088H6.48ZM6.08157 14.4488C5.9007 14.8105 5.59265 15.0957 5.05759 15.2856L5.72641 17.1704C6.67935 16.8323 7.4273 16.2295 7.87043 15.3432L6.08157 14.4488ZM5.07577 17.1767C5.55989 17.3381 5.87717 17.6132 6.08825 18.0203L7.86375 17.0997C7.40283 16.2108 6.66411 15.5979 5.70823 15.2793L5.07577 17.1767ZM6.08825 18.0203C6.31653 18.4606 6.48 19.2091 6.48 20.368H8.48C8.48 19.0789 8.30747 17.9554 7.86375 17.0997L6.08825 18.0203ZM6.48 20.368V25.588H8.48V20.368H6.48ZM6.48 25.588C6.48 26.574 6.56202 27.429 6.79366 28.0577L8.67034 27.3663C8.56598 27.083 8.48 26.522 8.48 25.588H6.48ZM6.8 28.0744C7.06506 28.756 7.55893 29.2704 8.26318 29.519L8.92882 27.633C8.81707 27.5936 8.73494 27.532 8.664 27.3496L6.8 28.0744ZM8.27977 29.5247C8.86986 29.7214 9.66236 29.792 10.576 29.792V27.792C9.71364 27.792 9.18614 27.7186 8.91223 27.6273L8.27977 29.5247ZM9.576 28.792V31.312H11.576V28.792H9.576ZM10.576 30.312C8.88378 30.312 7.73822 30.1435 7.05045 29.876L6.32555 31.74C7.36578 32.1445 8.81222 32.312 10.576 32.312V30.312ZM7.03619 29.8706C6.49501 29.6696 6.10709 29.2906 5.86234 28.6263L3.98566 29.3177C4.41291 30.4774 5.20099 31.3224 6.33981 31.7454L7.03619 29.8706ZM5.85929 28.6181C5.59003 27.9065 5.42 26.6772 5.42 24.832H3.42C3.42 26.7308 3.58597 28.2615 3.98871 29.3259L5.85929 28.6181ZM5.42 24.832V20.368H3.42V24.832H5.42ZM5.42 20.368C5.42 19.2327 5.25087 18.1422 4.62984 17.4384L3.13016 18.7616C3.22913 18.8738 3.42 19.2953 3.42 20.368H5.42ZM4.65193 17.4643C4.03281 16.7125 3.05628 16.488 2.08 16.488V18.488C2.83172 18.488 3.05519 18.6715 3.10807 18.7357L4.65193 17.4643ZM2.08 16.488H1.18V18.488H2.08V16.488ZM2.18 17.488V14.968H0.18V17.488H2.18ZM1.18 15.968H2.08V13.968H1.18V15.968ZM2.08 15.968C3.05628 15.968 4.03281 15.7435 4.65193 14.9917L3.10807 13.7203C3.05519 13.7845 2.83172 13.968 2.08 13.968V15.968ZM4.64822 14.9962C5.24474 14.2804 5.42 13.2159 5.42 12.088H3.42C3.42 13.1201 3.23526 13.5676 3.11178 13.7158L4.64822 14.9962ZM5.42 12.088V7.588H3.42V12.088H5.42ZM5.42 7.588C5.42 5.74856 5.60126 4.51103 5.89016 3.77917L4.02985 3.04483C3.59874 4.13697 3.42 5.68344 3.42 7.588H5.42ZM5.89016 3.77917C6.15691 3.10339 6.56117 2.7166 7.10819 2.51342L6.41181 0.638574C5.27883 1.0594 4.48309 1.89661 4.02985 3.04483L5.89016 3.77917ZM7.10819 2.51342C7.77695 2.26503 8.9036 2.108 10.576 2.108V0.107999C8.8404 0.107999 7.42305 0.262972 6.41181 0.638574L7.10819 2.51342ZM9.576 1.108V3.628H11.576V1.108H9.576ZM25.3309 4.42H26.3309V3.42H25.3309V4.42ZM25.3309 7.192V8.192H26.3309V7.192H25.3309ZM15.9709 7.192V6.192H14.9709V7.192H15.9709ZM15.9709 14.644H14.9709V15.644H15.9709V14.644ZM24.6109 14.644H25.6109V13.644H24.6109V14.644ZM24.6109 17.38V18.38H25.6109V17.38H24.6109ZM15.9709 17.38V16.38H14.9709V17.38H15.9709ZM15.9709 25.228H14.9709V26.228H15.9709V25.228ZM25.3309 25.228H26.3309V24.228H25.3309V25.228ZM25.3309 28V29H26.3309V28H25.3309ZM12.9109 28H11.9109V29H12.9109V28ZM12.9109 4.42V3.42H11.9109V4.42H12.9109ZM24.3309 4.42V7.192H26.3309V4.42H24.3309ZM25.3309 6.192H15.9709V8.192H25.3309V6.192ZM14.9709 7.192V14.644H16.9709V7.192H14.9709ZM15.9709 15.644H24.6109V13.644H15.9709V15.644ZM23.6109 14.644V17.38H25.6109V14.644H23.6109ZM24.6109 16.38H15.9709V18.38H24.6109V16.38ZM14.9709 17.38V25.228H16.9709V17.38H14.9709ZM15.9709 26.228H25.3309V24.228H15.9709V26.228ZM24.3309 25.228V28H26.3309V25.228H24.3309ZM25.3309 27H12.9109V29H25.3309V27ZM13.9109 28V4.42H11.9109V28H13.9109ZM12.9109 5.42H25.3309V3.42H12.9109V5.42ZM33.2636 3.412H34.2636V2.412H33.2636V3.412ZM33.2636 28V29H34.2636V28H33.2636ZM30.2036 28H29.2036V29H30.2036V28ZM30.2036 3.412V2.412H29.2036V3.412H30.2036ZM32.2636 3.412V28H34.2636V3.412H32.2636ZM33.2636 27H30.2036V29H33.2636V27ZM31.2036 28V3.412H29.2036V28H31.2036ZM30.2036 4.412H33.2636V2.412H30.2036V4.412ZM49.0175 11.728L48.2727 12.3952L48.28 12.4034L48.2875 12.4114L49.0175 11.728ZM49.0175 26.74L48.2804 26.0643L48.2797 26.065L49.0175 26.74ZM39.4775 26.74L38.7327 27.4072L38.74 27.4154L38.7475 27.4234L39.4775 26.74ZM39.4775 11.728L38.7404 11.0523L38.7397 11.053L39.4775 11.728ZM41.8535 13.528L42.6009 14.1924L42.6009 14.1924L41.8535 13.528ZM41.8535 24.904L42.6009 24.2396L42.6009 24.2396L41.8535 24.904ZM46.6775 24.904L45.9301 24.2396L45.9301 24.2396L46.6775 24.904ZM46.6775 13.528L45.9301 14.1924L45.9364 14.1994L45.9427 14.2063L46.6775 13.528ZM44.2655 11C46.2297 11 47.4943 11.5264 48.2727 12.3952L49.7624 11.0608C48.4767 9.62563 46.5734 9 44.2655 9V11ZM48.2875 12.4114C49.1166 13.2971 49.6015 14.627 49.6015 16.552H51.6015C51.6015 14.301 51.0304 12.4149 49.7476 11.0446L48.2875 12.4114ZM49.6015 16.552V21.88H51.6015V16.552H49.6015ZM49.6015 21.88C49.6015 23.8035 49.1172 25.1514 48.2804 26.0643L49.7547 27.4157C51.0299 26.0246 51.6015 24.1325 51.6015 21.88H49.6015ZM48.2797 26.065C47.5028 26.9142 46.2357 27.432 44.2655 27.432V29.432C46.5674 29.432 48.4682 28.8218 49.7553 27.415L48.2797 26.065ZM44.2655 27.432C42.2972 27.432 41.011 26.9148 40.2076 26.0566L38.7475 27.4234C40.056 28.8212 41.9619 29.432 44.2655 29.432V27.432ZM40.2224 26.0728C39.4048 25.1601 38.9295 23.809 38.9295 21.88H36.9295C36.9295 24.127 37.4863 26.0159 38.7327 27.4072L40.2224 26.0728ZM38.9295 21.88V16.552H36.9295V21.88H38.9295ZM38.9295 16.552C38.9295 14.6215 39.4054 13.2883 40.2153 12.403L38.7397 11.053C37.4857 12.4237 36.9295 14.3065 36.9295 16.552H38.9295ZM40.2147 12.4037C41.0195 11.5257 42.3031 11 44.2655 11V9C41.956 9 40.0476 9.62626 38.7404 11.0523L40.2147 12.4037ZM44.2655 11.556C43.0074 11.556 41.9081 11.9614 41.1061 12.8636L42.6009 14.1924C42.951 13.7986 43.4597 13.556 44.2655 13.556V11.556ZM41.1061 12.8636C40.3141 13.7546 39.9895 14.9493 39.9895 16.3H41.9895C41.9895 15.2507 42.2409 14.5974 42.6009 14.1924L41.1061 12.8636ZM39.9895 16.3V22.132H41.9895V16.3H39.9895ZM39.9895 22.132C39.9895 23.4827 40.3141 24.6774 41.1061 25.5684L42.6009 24.2396C42.2409 23.8346 41.9895 23.1813 41.9895 22.132H39.9895ZM41.1061 25.5684C41.9081 26.4706 43.0074 26.876 44.2655 26.876V24.876C43.4597 24.876 42.951 24.6334 42.6009 24.2396L41.1061 25.5684ZM44.2655 26.876C45.5237 26.876 46.623 26.4706 47.4249 25.5684L45.9301 24.2396C45.5801 24.6334 45.0714 24.876 44.2655 24.876V26.876ZM47.4249 25.5684C48.2169 24.6774 48.5415 23.4827 48.5415 22.132H46.5415C46.5415 23.1813 46.2901 23.8346 45.9301 24.2396L47.4249 25.5684ZM48.5415 22.132V16.264H46.5415V22.132H48.5415ZM48.5415 16.264C48.5415 14.9164 48.2182 13.7227 47.4123 12.8497L45.9427 14.2063C46.2889 14.5813 46.5415 15.2116 46.5415 16.264H48.5415ZM47.4249 12.8636C46.623 11.9614 45.5237 11.556 44.2655 11.556V13.556C45.0714 13.556 45.5801 13.7986 45.9301 14.1924L47.4249 12.8636ZM65.746 10.432H66.746V9.432H65.746V10.432ZM65.746 12.7L66.5875 13.2403L66.746 12.9934V12.7H65.746ZM57.61 25.372L56.7685 24.8317L55.7796 26.372H57.61V25.372ZM65.746 25.372H66.746V24.372H65.746V25.372ZM65.746 28V29H66.746V28H65.746ZM54.01 28H53.01V29H54.01V28ZM54.01 25.732L53.1696 25.19L53.01 25.4375V25.732H54.01ZM62.182 13.06L63.0224 13.602L64.0168 12.06H62.182V13.06ZM54.19 13.06H53.19V14.06H54.19V13.06ZM54.19 10.432V9.432H53.19V10.432H54.19ZM64.746 10.432V12.7H66.746V10.432H64.746ZM64.9045 12.1597L56.7685 24.8317L58.4515 25.9123L66.5875 13.2403L64.9045 12.1597ZM57.61 26.372H65.746V24.372H57.61V26.372ZM64.746 25.372V28H66.746V25.372H64.746ZM65.746 27H54.01V29H65.746V27ZM55.01 28V25.732H53.01V28H55.01ZM54.8504 26.274L63.0224 13.602L61.3416 12.518L53.1696 25.19L54.8504 26.274ZM62.182 12.06H54.19V14.06H62.182V12.06ZM55.19 13.06V10.432H53.19V13.06H55.19ZM54.19 11.432H65.746V9.432H54.19V11.432ZM72.7792 10.432H73.7792V9.432H72.7792V10.432ZM72.7792 28V29H73.7792V28H72.7792ZM69.7192 28H68.7192V29H69.7192V28ZM69.7192 10.432V9.432H68.7192V10.432H69.7192ZM72.7072 3.772L72.0564 4.53125L72.0693 4.54228L72.0825 4.55287L72.7072 3.772ZM72.7072 7.264L73.3251 8.05035L73.3319 8.04487L72.7072 7.264ZM69.7552 7.264L69.1044 8.02326L69.1332 8.04796L69.1639 8.0704L69.7552 7.264ZM69.7552 3.772L69.1305 2.99113L69.1173 3.00172L69.1044 3.01274L69.7552 3.772ZM71.7792 10.432V28H73.7792V10.432H71.7792ZM72.7792 27H69.7192V29H72.7792V27ZM70.7192 28V10.432H68.7192V28H70.7192ZM69.7192 11.432H72.7792V9.432H69.7192V11.432ZM71.2312 4.34C71.7486 4.34 71.9697 4.45688 72.0564 4.53125L73.358 3.01274C72.7728 2.51112 72.0098 2.34 71.2312 2.34V4.34ZM72.0825 4.55287C72.169 4.62205 72.2472 4.72203 72.2472 4.996H74.2472C74.2472 4.21397 73.9654 3.49795 73.3319 2.99113L72.0825 4.55287ZM72.2472 4.996V6.04H74.2472V4.996H72.2472ZM72.2472 6.04C72.2472 6.31397 72.169 6.41395 72.0825 6.48313L73.3319 8.04487C73.9654 7.53805 74.2472 6.82203 74.2472 6.04H72.2472ZM72.0894 6.47768C72.0001 6.54786 71.7653 6.66 71.2312 6.66V8.66C71.9932 8.66 72.7424 8.50814 73.325 8.05032L72.0894 6.47768ZM71.2312 6.66C70.7375 6.66 70.4788 6.55455 70.3466 6.45759L69.1639 8.0704C69.7516 8.50145 70.4769 8.66 71.2312 8.66V6.66ZM70.406 6.50474C70.3348 6.44367 70.2512 6.33808 70.2512 6.04H68.2512C68.2512 6.79792 68.5037 7.50833 69.1044 8.02326L70.406 6.50474ZM70.2512 6.04V4.996H68.2512V6.04H70.2512ZM70.2512 4.996C70.2512 4.69792 70.3348 4.59232 70.406 4.53125L69.1044 3.01274C68.5037 3.52767 68.2512 4.23808 68.2512 4.996H70.2512ZM70.3799 4.55287C70.5089 4.44967 70.7544 4.34 71.2312 4.34V2.34C70.4601 2.34 69.7215 2.51832 69.1305 2.99113L70.3799 4.55287ZM89.0012 11.584L88.2099 12.1954L88.2176 12.2055L88.2256 12.2153L89.0012 11.584ZM90.2612 28V29H91.2612V28H90.2612ZM87.2012 28H86.2012V29H87.2012V28ZM82.7372 13.636L83.3285 14.4424L83.3285 14.4424L82.7372 13.636ZM80.8652 15.796L79.9997 15.295L79.8652 15.5274V15.796H80.8652ZM80.8652 28V29H81.8652V28H80.8652ZM77.8052 28H76.8052V29H77.8052V28ZM77.8052 10.432V9.432H76.8052V10.432H77.8052ZM80.6852 10.432H81.6852V9.432H80.6852V10.432ZM80.6852 13.06H79.6852V16.3967L81.5203 13.61L80.6852 13.06ZM82.8452 10.792L82.3019 9.95235L82.2905 9.95995L82.8452 10.792ZM85.4732 11C86.7524 11 87.6134 11.4236 88.2099 12.1954L89.7924 10.9726C88.7569 9.63243 87.2659 9 85.4732 9V11ZM88.2256 12.2153C88.8682 13.0047 89.2612 14.2227 89.2612 16.012H91.2612C91.2612 13.9613 90.8142 12.2273 89.7767 10.9527L88.2256 12.2153ZM89.2612 16.012V28H91.2612V16.012H89.2612ZM90.2612 27H87.2012V29H90.2612V27ZM88.2012 28V16.444H86.2012V28H88.2012ZM88.2012 16.444C88.2012 15.1676 87.9995 14.0374 87.4546 13.199C86.8612 12.2861 85.9434 11.844 84.8612 11.844V13.844C85.3389 13.844 85.5911 14.0018 85.7777 14.289C86.0128 14.6506 86.2012 15.3204 86.2012 16.444H88.2012ZM84.8612 11.844C83.8991 11.844 82.9886 12.2115 82.1458 12.8296L83.3285 14.4424C83.9257 14.0045 84.4312 13.844 84.8612 13.844V11.844ZM82.1458 12.8296C81.2961 13.4527 80.5847 14.2846 79.9997 15.295L81.7306 16.297C82.2016 15.4834 82.7383 14.8753 83.3285 14.4424L82.1458 12.8296ZM79.8652 15.796V28H81.8652V15.796H79.8652ZM80.8652 27H77.8052V29H80.8652V27ZM78.8052 28V10.432H76.8052V28H78.8052ZM77.8052 11.432H80.6852V9.432H77.8052V11.432ZM79.6852 10.432V13.06H81.6852V10.432H79.6852ZM81.5203 13.61C82.1117 12.712 82.7424 12.0624 83.3999 11.624L82.2905 9.95995C81.3639 10.5776 80.5547 11.44 79.85 12.51L81.5203 13.61ZM83.3884 11.6316C84.0491 11.204 84.7376 11 85.4732 11V9C84.3367 9 83.2732 9.32395 82.3019 9.95243L83.3884 11.6316ZM106.041 11.728L105.296 12.3952L105.303 12.4034L105.311 12.4114L106.041 11.728ZM106.041 26.74L105.304 26.0643L105.303 26.065L106.041 26.74ZM96.501 26.74L95.7561 27.4072L95.7635 27.4154L95.7709 27.4234L96.501 26.74ZM96.501 11.728L95.7638 11.0523L95.7632 11.053L96.501 11.728ZM98.877 13.528L99.6244 14.1924L99.6244 14.1924L98.877 13.528ZM98.877 24.904L99.6244 24.2396L99.6244 24.2396L98.877 24.904ZM103.701 24.904L102.954 24.2396L102.954 24.2396L103.701 24.904ZM103.701 13.528L102.954 14.1924L102.96 14.1994L102.966 14.2063L103.701 13.528ZM101.289 11C103.253 11 104.518 11.5264 105.296 12.3952L106.786 11.0608C105.5 9.62563 103.597 9 101.289 9V11ZM105.311 12.4114C106.14 13.2971 106.625 14.627 106.625 16.552H108.625C108.625 14.301 108.054 12.4149 106.771 11.0446L105.311 12.4114ZM106.625 16.552V21.88H108.625V16.552H106.625ZM106.625 21.88C106.625 23.8035 106.141 25.1514 105.304 26.0643L106.778 27.4157C108.053 26.0246 108.625 24.1325 108.625 21.88H106.625ZM105.303 26.065C104.526 26.9142 103.259 27.432 101.289 27.432V29.432C103.591 29.432 105.492 28.8218 106.779 27.415L105.303 26.065ZM101.289 27.432C99.3206 27.432 98.0345 26.9148 97.231 26.0566L95.7709 27.4234C97.0795 28.8212 98.9853 29.432 101.289 29.432V27.432ZM97.2458 26.0728C96.4282 25.1601 95.953 23.809 95.953 21.88H93.953C93.953 24.127 94.5097 26.0159 95.7561 27.4072L97.2458 26.0728ZM95.953 21.88V16.552H93.953V21.88H95.953ZM95.953 16.552C95.953 14.6215 96.4288 13.2883 97.2388 12.403L95.7632 11.053C94.5091 12.4237 93.953 14.3065 93.953 16.552H95.953ZM97.2381 12.4037C98.0429 11.5257 99.3265 11 101.289 11V9C98.9794 9 97.071 9.62626 95.7638 11.0523L97.2381 12.4037ZM101.289 11.556C100.031 11.556 98.9315 11.9614 98.1296 12.8636L99.6244 14.1924C99.9744 13.7986 100.483 13.556 101.289 13.556V11.556ZM98.1296 12.8636C97.3376 13.7546 97.013 14.9493 97.013 16.3H99.013C99.013 15.2507 99.2644 14.5974 99.6244 14.1924L98.1296 12.8636ZM97.013 16.3V22.132H99.013V16.3H97.013ZM97.013 22.132C97.013 23.4827 97.3376 24.6774 98.1296 25.5684L99.6244 24.2396C99.2644 23.8346 99.013 23.1813 99.013 22.132H97.013ZM98.1296 25.5684C98.9315 26.4706 100.031 26.876 101.289 26.876V24.876C100.483 24.876 99.9744 24.6334 99.6244 24.2396L98.1296 25.5684ZM101.289 26.876C102.547 26.876 103.646 26.4706 104.448 25.5684L102.954 24.2396C102.604 24.6334 102.095 24.876 101.289 24.876V26.876ZM104.448 25.5684C105.24 24.6774 105.565 23.4827 105.565 22.132H103.565C103.565 23.1813 103.314 23.8346 102.954 24.2396L104.448 25.5684ZM105.565 22.132V16.264H103.565V22.132H105.565ZM105.565 16.264C105.565 14.9164 105.242 13.7227 104.436 12.8497L102.966 14.2063C103.312 14.5813 103.565 15.2116 103.565 16.264H105.565ZM104.448 12.8636C103.646 11.9614 102.547 11.556 101.289 11.556V13.556C102.095 13.556 102.604 13.7986 102.954 14.1924L104.448 12.8636ZM132.55 6.004L131.824 6.69138L131.824 6.69139L132.55 6.004ZM132.55 26.416L131.824 25.7286L131.824 25.7286L132.55 26.416ZM120.67 26.416L119.944 27.1034L119.944 27.1034L120.67 26.416ZM120.67 6.004L121.396 6.69138L121.396 6.69138L120.67 6.004ZM123.01 7.876L122.314 7.15842L122.308 7.16362L122.303 7.16889L123.01 7.876ZM123.01 24.544L122.293 25.2405L122.303 25.2512L122.314 25.2616L123.01 24.544ZM130.174 24.544L130.881 25.2511L130.881 25.2511L130.174 24.544ZM130.174 7.912L129.457 8.60847L129.467 8.61918L129.478 8.62958L130.174 7.912ZM126.61 4.988C129.149 4.988 130.812 5.62273 131.824 6.69138L133.276 5.31662C131.744 3.69727 129.447 2.988 126.61 2.988V4.988ZM131.824 6.69139C132.868 7.79438 133.458 9.42377 133.458 11.728H135.458C135.458 9.08823 134.777 6.90162 133.276 5.31661L131.824 6.69139ZM133.458 11.728V20.692H135.458V11.728H133.458ZM133.458 20.692C133.458 22.9962 132.868 24.6256 131.824 25.7286L133.276 27.1034C134.777 25.5184 135.458 23.3318 135.458 20.692H133.458ZM131.824 25.7286C130.812 26.7973 129.149 27.432 126.61 27.432V29.432C129.447 29.432 131.744 28.7227 133.276 27.1034L131.824 25.7286ZM126.61 27.432C124.071 27.432 122.408 26.7973 121.396 25.7286L119.944 27.1034C121.476 28.7227 123.773 29.432 126.61 29.432V27.432ZM121.396 25.7286C120.353 24.6256 119.762 22.9962 119.762 20.692H117.762C117.762 23.3318 118.444 25.5184 119.944 27.1034L121.396 25.7286ZM119.762 20.692V11.728H117.762V20.692H119.762ZM119.762 11.728C119.762 9.42377 120.353 7.79438 121.396 6.69138L119.944 5.31662C118.444 6.90162 117.762 9.08823 117.762 11.728H119.762ZM121.396 6.69138C122.408 5.62273 124.071 4.988 126.61 4.988V2.988C123.773 2.988 121.476 3.69727 119.944 5.31662L121.396 6.69138ZM126.61 5.688C124.87 5.688 123.379 6.12418 122.314 7.15842L123.707 8.59358C124.273 8.04382 125.183 7.688 126.61 7.688V5.688ZM122.303 7.16889C121.263 8.20932 120.822 9.66751 120.822 11.368H122.822C122.822 9.99649 123.174 9.12668 123.717 8.58311L122.303 7.16889ZM120.822 11.368V21.016H122.822V11.368H120.822ZM120.822 21.016C120.822 22.7187 121.263 24.1802 122.293 25.2405L123.728 23.8475C123.173 23.2758 122.822 22.3853 122.822 21.016H120.822ZM122.314 25.2616C123.379 26.2958 124.87 26.732 126.61 26.732V24.732C125.183 24.732 124.273 24.3762 123.707 23.8264L122.314 25.2616ZM126.61 26.732C128.348 26.732 129.836 26.2968 130.881 25.2511L129.467 23.8369C128.929 24.3752 128.04 24.732 126.61 24.732V26.732ZM130.881 25.2511C131.941 24.1919 132.398 22.7265 132.398 21.016H130.398C130.398 22.3775 130.04 23.2641 129.467 23.8369L130.881 25.2511ZM132.398 21.016V11.404H130.398V21.016H132.398ZM132.398 11.404C132.398 9.69559 131.941 8.23351 130.871 7.19442L129.478 8.62958C130.039 9.17448 130.398 10.0404 130.398 11.404H132.398ZM130.892 7.21552C129.847 6.13942 128.356 5.688 126.61 5.688V7.688C128.032 7.688 128.917 8.05258 129.457 8.60847L130.892 7.21552ZM152.176 10.432L153.132 10.7276L153.533 9.432H152.176V10.432ZM146.74 28V29H147.478L147.696 28.2956L146.74 28ZM142.744 28L141.789 28.2938L142.006 29H142.744V28ZM137.344 10.432V9.432H135.991L136.389 10.7258L137.344 10.432ZM140.584 10.432L141.549 10.1693L141.348 9.432H140.584V10.432ZM144.76 25.768L143.796 26.0307L144.76 29.5741L145.725 26.0307L144.76 25.768ZM148.936 10.432V9.432H148.172L147.972 10.1693L148.936 10.432ZM151.221 10.1364L145.785 27.7044L147.696 28.2956L153.132 10.7276L151.221 10.1364ZM146.74 27H142.744V29H146.74V27ZM143.7 27.7062L138.3 10.1382L136.389 10.7258L141.789 28.2938L143.7 27.7062ZM137.344 11.432H140.584V9.432H137.344V11.432ZM139.62 10.6947L143.796 26.0307L145.725 25.5053L141.549 10.1693L139.62 10.6947ZM145.725 26.0307L149.901 10.6947L147.972 10.1693L143.796 25.5053L145.725 26.0307ZM148.936 11.432H152.176V9.432H148.936V11.432ZM165.306 11.656L166.029 10.9648L166.029 10.9648L165.306 11.656ZM166.89 20.152V21.152H167.89V20.152H166.89ZM157.638 20.152V19.152H156.638V20.152H157.638ZM158.502 24.94L157.81 25.662L157.825 25.6767L157.841 25.6907L158.502 24.94ZM165.99 25.156L166.99 25.129L166.957 23.9367L165.789 24.1764L165.99 25.156ZM166.062 27.82L166.242 28.8037L167.085 28.6496L167.062 27.793L166.062 27.82ZM156.126 26.884L155.419 27.5912L155.427 27.5992L156.126 26.884ZM156.09 11.656L155.359 10.9731L155.351 10.9817L156.09 11.656ZM158.466 13.456L159.188 14.1479L159.195 14.1406L159.202 14.1331L158.466 13.456ZM157.638 17.704H156.638V18.704H157.638V17.704ZM163.83 17.704V18.704H164.83V17.704H163.83ZM162.966 13.456L162.23 14.1331L162.237 14.1409L162.245 14.1485L162.966 13.456ZM160.698 11C162.532 11 163.771 11.4978 164.583 12.3472L166.029 10.9648C164.729 9.60621 162.896 9 160.698 9V11ZM164.583 12.3472C165.404 13.2057 165.89 14.5175 165.89 16.444H167.89C167.89 14.1945 167.319 12.3143 166.029 10.9648L164.583 12.3472ZM165.89 16.444V20.152H167.89V16.444H165.89ZM166.89 19.152H157.638V21.152H166.89V19.152ZM156.638 20.152V22.276H158.638V20.152H156.638ZM156.638 22.276C156.638 23.6291 156.953 24.841 157.81 25.662L159.194 24.218C158.899 23.935 158.638 23.3709 158.638 22.276H156.638ZM157.841 25.6907C158.705 26.451 159.931 26.732 161.31 26.732V24.732C160.145 24.732 159.499 24.485 159.163 24.1893L157.841 25.6907ZM161.31 26.732C162.651 26.732 164.284 26.5268 166.191 26.1356L165.789 24.1764C163.952 24.5532 162.465 24.732 161.31 24.732V26.732ZM164.99 25.183L165.062 27.847L167.062 27.793L166.99 25.129L164.99 25.183ZM165.882 26.8363C163.651 27.2441 162.134 27.432 161.274 27.432V29.432C162.333 29.432 164.009 29.2119 166.242 28.8037L165.882 26.8363ZM161.274 27.432C159.007 27.432 157.608 26.934 156.825 26.1688L155.427 27.5992C156.756 28.898 158.789 29.432 161.274 29.432V27.432ZM156.833 26.1769C156.062 25.4061 155.578 24.1173 155.578 22.096H153.578C153.578 24.3947 154.126 26.2979 155.419 27.5911L156.833 26.1769ZM155.578 22.096V16.444H153.578V22.096H155.578ZM155.578 16.444C155.578 14.5063 156.045 13.1879 156.828 12.3303L155.351 10.9817C154.119 12.3321 153.578 14.2057 153.578 16.444H155.578ZM156.82 12.3389C157.604 11.5006 158.834 11 160.698 11V9C158.482 9 156.64 9.60343 155.359 10.9731L156.82 12.3389ZM160.698 11.556C159.528 11.556 158.5 11.9418 157.73 12.7789L159.202 14.1331C159.536 13.7702 159.996 13.556 160.698 13.556V11.556ZM157.744 12.7641C156.955 13.5879 156.638 14.7144 156.638 15.976H158.638C158.638 15.0296 158.873 14.4761 159.188 14.1479L157.744 12.7641ZM156.638 15.976V17.704H158.638V15.976H156.638ZM157.638 18.704H163.83V16.704H157.638V18.704ZM164.83 17.704V16.084H162.83V17.704H164.83ZM164.83 16.084C164.83 14.7745 164.501 13.6115 163.687 12.7635L162.245 14.1485C162.582 14.5005 162.83 15.0895 162.83 16.084H164.83ZM163.702 12.7789C162.927 11.9364 161.883 11.556 160.698 11.556V13.556C161.432 13.556 161.901 13.7756 162.23 14.1331L163.702 12.7789ZM183.136 28V29H184.136V28H183.136ZM180.22 28H179.22V29H180.22V28ZM180.22 25.156H181.22V21.8227L179.385 24.6055L180.22 25.156ZM171.868 26.92L171.074 27.5289L171.081 27.5378L171.868 26.92ZM171.976 11.584L171.21 10.9403L171.202 10.9508L171.976 11.584ZM177.952 10.54L177.527 11.4455L177.539 11.451L177.551 11.4562L177.952 10.54ZM180.076 11.8L179.462 12.5894L181.076 13.8446V11.8H180.076ZM180.076 3.412V2.412H179.076V3.412H180.076ZM183.136 3.412H184.136V2.412H183.136V3.412ZM174.424 13.672L173.631 13.0623L173.627 13.0669L174.424 13.672ZM178.132 24.868L178.753 25.6515L178.756 25.6489L178.132 24.868ZM180.076 22.456L180.949 22.9434L181.076 22.7162V22.456H180.076ZM180.076 14.536H181.076V14.1353L180.799 13.8455L180.076 14.536ZM178.276 13.24L177.828 14.1345L177.841 14.1406L178.276 13.24ZM183.136 27H180.22V29H183.136V27ZM181.22 28V25.156H179.22V28H181.22ZM179.385 24.6055C178.046 26.6355 176.672 27.432 175.288 27.432V29.432C177.599 29.432 179.513 28.0445 181.054 25.7065L179.385 24.6055ZM175.288 27.432C174.051 27.432 173.224 27.0283 172.654 26.3022L171.081 27.5378C172.095 28.8277 173.548 29.432 175.288 29.432V27.432ZM172.661 26.3112C172.056 25.5232 171.68 24.2751 171.68 22.42H169.68C169.68 24.5009 170.095 26.2528 171.074 27.5288L172.661 26.3112ZM171.68 22.42V16.012H169.68V22.42H171.68ZM171.68 16.012C171.68 14.2579 172.08 13.0361 172.749 12.2172L171.202 10.9508C170.144 12.2439 169.68 13.9741 169.68 16.012H171.68ZM172.741 12.2276C173.404 11.4396 174.359 11 175.756 11V9C173.888 9 172.324 9.61641 171.21 10.9404L172.741 12.2276ZM175.756 11C176.276 11 176.863 11.1344 177.527 11.4455L178.376 9.63454C177.504 9.22563 176.627 9 175.756 9V11ZM177.551 11.4562C178.244 11.7596 178.88 12.1374 179.462 12.5894L180.689 11.0106C179.975 10.4546 179.195 9.9924 178.352 9.62384L177.551 11.4562ZM181.076 11.8V3.412H179.076V11.8H181.076ZM180.076 4.412H183.136V2.412H180.076V4.412ZM182.136 3.412V28H184.136V3.412H182.136ZM176.44 11.736C175.3 11.736 174.32 12.1659 173.631 13.0623L175.216 14.2817C175.487 13.9301 175.851 13.736 176.44 13.736V11.736ZM173.627 13.0669C172.977 13.9223 172.74 15.1085 172.74 16.444H174.74C174.74 15.2835 174.958 14.6216 175.22 14.2771L173.627 13.0669ZM172.74 16.444V22.024H174.74V16.444H172.74ZM172.74 22.024C172.74 23.3185 172.934 24.4581 173.456 25.3035C174.027 26.2282 174.926 26.696 176.008 26.696V24.696C175.577 24.696 175.342 24.5518 175.157 24.2525C174.923 23.8739 174.74 23.1775 174.74 22.024H172.74ZM176.008 26.696C177.002 26.696 177.923 26.3101 178.753 25.6515L177.51 24.0845C176.948 24.5299 176.453 24.696 176.008 24.696V26.696ZM178.756 25.6489C179.601 24.9728 180.327 24.0579 180.949 22.9434L179.202 21.9686C178.672 22.9181 178.102 23.6112 177.507 24.0871L178.756 25.6489ZM181.076 22.456V14.536H179.076V22.456H181.076ZM180.799 13.8455C180.207 13.2257 179.508 12.7245 178.71 12.3394L177.841 14.1406C178.435 14.4275 178.936 14.7902 179.352 15.2265L180.799 13.8455ZM178.723 12.3456C177.959 11.9639 177.192 11.736 176.44 11.736V13.736C176.791 13.736 177.248 13.8441 177.828 14.1344L178.723 12.3456ZM191.221 12.772H190.221V15.8925L192.034 13.3532L191.221 12.772ZM199.357 11.584L198.565 12.1954L198.573 12.2055L198.581 12.2153L199.357 11.584ZM200.617 28V29H201.617V28H200.617ZM197.557 28H196.557V29H197.557V28ZM193.093 13.636L193.684 14.4424L193.684 14.4424L193.093 13.636ZM191.221 15.796L190.355 15.295L190.221 15.5274V15.796H191.221ZM191.221 28V29H192.221V28H191.221ZM188.161 28H187.161V29H188.161V28ZM188.161 3.412V2.412H187.161V3.412H188.161ZM191.221 3.412H192.221V2.412H191.221V3.412ZM192.034 13.3532C193.228 11.682 194.493 11 195.829 11V9C193.661 9 191.853 10.166 190.407 12.1908L192.034 13.3532ZM195.829 11C197.108 11 197.969 11.4236 198.565 12.1954L200.148 10.9726C199.112 9.63243 197.621 9 195.829 9V11ZM198.581 12.2153C199.224 13.0047 199.617 14.2227 199.617 16.012H201.617C201.617 13.9613 201.17 12.2273 200.132 10.9527L198.581 12.2153ZM199.617 16.012V28H201.617V16.012H199.617ZM200.617 27H197.557V29H200.617V27ZM198.557 28V16.444H196.557V28H198.557ZM198.557 16.444C198.557 15.1676 198.355 14.0374 197.81 13.199C197.217 12.2861 196.299 11.844 195.217 11.844V13.844C195.694 13.844 195.947 14.0018 196.133 14.289C196.368 14.6506 196.557 15.3204 196.557 16.444H198.557ZM195.217 11.844C194.255 11.844 193.344 12.2115 192.501 12.8296L193.684 14.4424C194.281 14.0045 194.787 13.844 195.217 13.844V11.844ZM192.501 12.8296C191.652 13.4527 190.94 14.2846 190.355 15.295L192.086 16.297C192.557 15.4834 193.094 14.8753 193.684 14.4424L192.501 12.8296ZM190.221 15.796V28H192.221V15.796H190.221ZM191.221 27H188.161V29H191.221V27ZM189.161 28V3.412H187.161V28H189.161ZM188.161 4.412H191.221V2.412H188.161V4.412ZM190.221 3.412V12.772H192.221V3.412H190.221ZM215.861 11.656L216.583 10.9648L216.583 10.9648L215.861 11.656ZM217.445 20.152V21.152H218.445V20.152H217.445ZM208.193 20.152V19.152H207.193V20.152H208.193ZM209.057 24.94L208.365 25.662L208.38 25.6767L208.396 25.6907L209.057 24.94ZM216.545 25.156L217.544 25.129L217.512 23.9367L216.344 24.1764L216.545 25.156ZM216.617 27.82L216.796 28.8037L217.639 28.6496L217.616 27.793L216.617 27.82ZM206.681 26.884L205.974 27.5912L205.982 27.5992L206.681 26.884ZM206.645 11.656L205.914 10.9731L205.906 10.9817L206.645 11.656ZM209.021 13.456L209.743 14.1479L209.75 14.1406L209.757 14.1331L209.021 13.456ZM208.193 17.704H207.193V18.704H208.193V17.704ZM214.385 17.704V18.704H215.385V17.704H214.385ZM213.521 13.456L212.785 14.1331L212.792 14.1409L212.799 14.1485L213.521 13.456ZM211.253 11C213.087 11 214.326 11.4978 215.138 12.3472L216.583 10.9648C215.284 9.60621 213.45 9 211.253 9V11ZM215.138 12.3472C215.959 13.2057 216.445 14.5175 216.445 16.444H218.445C218.445 14.1945 217.874 12.3143 216.583 10.9648L215.138 12.3472ZM216.445 16.444V20.152H218.445V16.444H216.445ZM217.445 19.152H208.193V21.152H217.445V19.152ZM207.193 20.152V22.276H209.193V20.152H207.193ZM207.193 22.276C207.193 23.6291 207.508 24.841 208.365 25.662L209.749 24.218C209.453 23.935 209.193 23.3709 209.193 22.276H207.193ZM208.396 25.6907C209.26 26.451 210.486 26.732 211.865 26.732V24.732C210.7 24.732 210.053 24.485 209.717 24.1893L208.396 25.6907ZM211.865 26.732C213.206 26.732 214.838 26.5268 216.746 26.1356L216.344 24.1764C214.507 24.5532 213.02 24.732 211.865 24.732V26.732ZM215.545 25.183L215.617 27.847L217.616 27.793L217.544 25.129L215.545 25.183ZM216.437 26.8363C214.206 27.2441 212.689 27.432 211.829 27.432V29.432C212.888 29.432 214.563 29.2119 216.796 28.8037L216.437 26.8363ZM211.829 27.432C209.562 27.432 208.163 26.934 207.38 26.1688L205.982 27.5992C207.311 28.898 209.344 29.432 211.829 29.432V27.432ZM207.388 26.1769C206.617 25.4061 206.133 24.1173 206.133 22.096H204.133C204.133 24.3947 204.68 26.2979 205.974 27.5911L207.388 26.1769ZM206.133 22.096V16.444H204.133V22.096H206.133ZM206.133 16.444C206.133 14.5063 206.6 13.1879 207.383 12.3303L205.906 10.9817C204.673 12.3321 204.133 14.2057 204.133 16.444H206.133ZM207.375 12.3389C208.159 11.5006 209.389 11 211.253 11V9C209.036 9 207.194 9.60343 205.914 10.9731L207.375 12.3389ZM211.253 11.556C210.083 11.556 209.055 11.9418 208.285 12.7789L209.757 14.1331C210.09 13.7702 210.551 13.556 211.253 13.556V11.556ZM208.299 12.7641C207.509 13.5879 207.193 14.7144 207.193 15.976H209.193C209.193 15.0296 209.428 14.4761 209.743 14.1479L208.299 12.7641ZM207.193 15.976V17.704H209.193V15.976H207.193ZM208.193 18.704H214.385V16.704H208.193V18.704ZM215.385 17.704V16.084H213.385V17.704H215.385ZM215.385 16.084C215.385 14.7745 215.056 13.6115 214.242 12.7635L212.799 14.1485C213.137 14.5005 213.385 15.0895 213.385 16.084H215.385ZM214.257 12.7789C213.481 11.9364 212.438 11.556 211.253 11.556V13.556C211.987 13.556 212.456 13.7756 212.785 14.1331L214.257 12.7789ZM218.75 1.108V0.107999H217.75V1.108H218.75ZM222.566 1.576L222.914 0.638574L222.914 0.638574L222.566 1.576ZM225.41 14.356L224.621 14.9699L224.64 14.9944L224.66 15.0176L225.41 14.356ZM228.146 14.968H229.146V13.968H228.146V14.968ZM228.146 17.488V18.488H229.146V17.488H228.146ZM225.41 18.1L224.66 17.4384L224.649 17.4511L224.638 17.4643L225.41 18.1ZM224.402 28.972L223.467 28.6181L223.464 28.6263L224.402 28.972ZM222.602 30.808L222.263 29.8674L222.247 29.8732L222.231 29.8795L222.602 30.808ZM218.75 31.312H217.75V32.312H218.75V31.312ZM218.75 28.792V27.792H217.75V28.792H218.75ZM220.694 28.576L220.378 27.6273L220.37 27.6301L220.361 27.633L220.694 28.576ZM221.594 27.712L222.526 28.0744L222.529 28.0661L222.533 28.0577L221.594 27.712ZM222.35 17.56L221.462 17.0997L221.462 17.0997L222.35 17.56ZM223.934 16.228L224.25 17.1767L227.008 16.2575L224.269 15.2856L223.934 16.228ZM222.314 14.896L221.413 15.3298L221.423 15.3502L221.434 15.3701L222.314 14.896ZM221.63 4.78L220.677 5.08113L220.679 5.0887L220.682 5.09623L221.63 4.78ZM220.766 3.88L220.404 4.812L220.427 4.82091L220.45 4.82868L220.766 3.88ZM218.75 3.628H217.75V4.628H218.75V3.628ZM218.75 2.108C220.423 2.108 221.549 2.26503 222.218 2.51342L222.914 0.638574C221.903 0.262972 220.486 0.107999 218.75 0.107999V2.108ZM222.218 2.51342C222.765 2.7166 223.169 3.10339 223.436 3.77917L225.296 3.04483C224.843 1.89661 224.047 1.0594 222.914 0.638574L222.218 2.51342ZM223.436 3.77917C223.725 4.51103 223.906 5.74856 223.906 7.588H225.906C225.906 5.68344 225.727 4.13697 225.296 3.04483L223.436 3.77917ZM223.906 7.588V12.088H225.906V7.588H223.906ZM223.906 12.088C223.906 13.2074 224.068 14.2585 224.621 14.9699L226.2 13.7421C226.081 13.5895 225.906 13.1286 225.906 12.088H223.906ZM224.66 15.0176C225.298 15.7399 226.261 15.968 227.246 15.968V13.968C226.503 13.968 226.243 13.7881 226.16 13.6944L224.66 15.0176ZM227.246 15.968H228.146V13.968H227.246V15.968ZM227.146 14.968V17.488H229.146V14.968H227.146ZM228.146 16.488H227.246V18.488H228.146V16.488ZM227.246 16.488C226.261 16.488 225.298 16.7161 224.66 17.4384L226.16 18.7616C226.243 18.6679 226.503 18.488 227.246 18.488V16.488ZM224.638 17.4643C224.062 18.1644 223.906 19.241 223.906 20.368H225.906C225.906 19.287 226.087 18.8516 226.182 18.7357L224.638 17.4643ZM223.906 20.368V24.832H225.906V20.368H223.906ZM223.906 24.832C223.906 26.6772 223.736 27.9065 223.467 28.6181L225.338 29.3259C225.74 28.2615 225.906 26.7308 225.906 24.832H223.906ZM223.464 28.6263C223.223 29.2798 222.831 29.6621 222.263 29.8674L222.942 31.7486C224.101 31.3299 224.909 30.4882 225.341 29.3177L223.464 28.6263ZM222.231 29.8795C221.573 30.1427 220.445 30.312 218.75 30.312V32.312C220.511 32.312 221.952 32.1453 222.974 31.7365L222.231 29.8795ZM219.75 31.312V28.792H217.75V31.312H219.75ZM218.75 29.792C219.658 29.792 220.45 29.7227 221.027 29.519L220.361 27.633C220.123 27.7173 219.618 27.792 218.75 27.792V29.792ZM221.01 29.5247C221.73 29.2847 222.253 28.778 222.526 28.0744L220.662 27.3496C220.6 27.51 220.522 27.5793 220.378 27.6273L221.01 29.5247ZM222.533 28.0577C222.764 27.429 222.846 26.574 222.846 25.588H220.846C220.846 26.522 220.76 27.083 220.656 27.3663L222.533 28.0577ZM222.846 25.588V20.368H220.846V25.588H222.846ZM222.846 20.368C222.846 19.2091 223.01 18.4606 223.238 18.0203L221.462 17.0997C221.019 17.9554 220.846 19.0789 220.846 20.368H222.846ZM223.238 18.0203C223.449 17.6132 223.766 17.3381 224.25 17.1767L223.618 15.2793C222.662 15.5979 221.923 16.2108 221.462 17.0997L223.238 18.0203ZM224.269 15.2856C223.73 15.0943 223.399 14.802 223.195 14.4219L221.434 15.3701C221.901 16.238 222.651 16.8337 223.6 17.1704L224.269 15.2856ZM223.215 14.4622C222.999 14.013 222.846 13.2532 222.846 12.088H220.846C220.846 13.3708 221.006 14.483 221.413 15.3298L223.215 14.4622ZM222.846 12.088V6.832H220.846V12.088H222.846ZM222.846 6.832C222.846 5.87717 222.777 5.05708 222.579 4.46377L220.682 5.09623C220.772 5.36692 220.846 5.91483 220.846 6.832H222.846ZM222.584 4.47887C222.349 3.7354 221.836 3.18245 221.082 2.93132L220.45 4.82868C220.561 4.86555 220.623 4.91259 220.677 5.08113L222.584 4.47887ZM221.129 2.948C220.516 2.70993 219.69 2.628 218.75 2.628V4.628C219.635 4.628 220.152 4.71407 220.404 4.812L221.129 2.948ZM219.75 3.628V1.108H217.75V3.628H219.75Z" fill="black"/>
</svg>
